<?xml version="1.0" standalone="no"?>
<!DOCTYPE svg PUBLIC "-//W3C//DTD SVG 20010904//EN"
 "http://www.w3.org/TR/2001/REC-SVG-20010904/DTD/svg10.dtd">
<svg version="1.0" xmlns="http://www.w3.org/2000/svg"
 width="832.000000pt" height="832.000000pt" viewBox="0 0 832.000000 832.000000"
 preserveAspectRatio="xMidYMid meet">
<metadata>
Created by potrace 1.14, written by Peter Selinger 2001-2017
</metadata>
<g transform="translate(0.000000,832.000000) scale(0.100000,-0.100000)"
fill="#000000" stroke="none">
<path d="M3177 6083 l-947 -948 157 -158 c87 -86 223 -221 302 -300 79 -78
151 -150 160 -160 9 -10 62 -64 119 -120 56 -56 164 -164 240 -240 75 -76 184
-184 241 -240 57 -56 111 -110 120 -121 20 -23 15 -18 146 -146 58 -57 110
-109 114 -115 3 -5 72 -74 152 -153 l145 -143 930 929 c511 512 937 939 947
949 17 20 -4 42 -929 967 -520 520 -947 946 -948 946 -1 0 -428 -426 -949
-947z"/>
<path d="M1030 3935 c-520 -520 -946 -947 -947 -948 -1 -2 424 -429 946 -950
l947 -948 930 929 c511 512 937 939 947 950 18 20 4 34 -928 966 -520 520
-947 946 -948 946 -2 0 -428 -425 -947 -945z"/>
<path d="M5330 3939 c-514 -516 -938 -942 -942 -947 -4 -4 419 -434 940 -955
l947 -947 942 942 c519 519 945 946 948 949 6 7 -1884 1900 -1894 1898 -3 -1
-427 -424 -941 -940z"/>
</g>
</svg>
